#!OML:ASF X:\für Bonn\!DataBase\2005_08_11_Bastian_Final\c3d\Bastian.ASF
:FULLY-SPECIFIED
:DEGREES
170
root -22.0423 17.64 0.97674 150.825 -70.2454 -155.146
lowerback 7.90011 4.46556 4.41487
upperback 4.1454 6.0326 -2.79825
thorax 0.667463 3.06704 -5.77346
lowerneck -10.2492 -7.36069 1.14024
upperneck -13.4881 -9.85299 14.2973
head -1.89422 -5.61481 4.37476
rclavicle 6.79844e-014 -2.38542e-014
rhumerus 56.4636 -1.15348 -33.144
rradius 73.2529
rwrist 3.80805
rhand -16.7478 1.6635
rfingers 7.12502
rthumb 9.47866 -28.1033
lclavicle 6.79844e-014 -2.38542e-014
lhumerus -26.5809 -9.89776 83.9776
lradius 5.40134
lwrist 3.91629
lhand -10.1239 -4.88156
lfingers 7.12502
lthumb 15.8643 24.4885
rfemur -0.916116 -3.23391 25.8006
rtibia 31.7441
rfoot -14.0271 -11.7591
rtoes -20.2012
lfemur -6.39263 2.99594 -12.9098
ltibia 27.6318
lfoot -7.6173 -11.2275
ltoes -11.2558
171
root -22.033 17.6385 0.986892 151.446 -69.9252 -155.77
lowerback 7.95649 4.41044 4.36609
upperback 4.13136 5.9561 -2.82625
thorax 0.609406 3.02548 -5.77787
lowerneck -10.0859 -7.14636 1.194
upperneck -13.4843 -9.56306 14.2358
head -1.94782 -5.47766 4.36449
rclavicle 2.70347e-014 -2.06736e-014
rhumerus 55.6574 -0.383536 -32.8962
rradius 76.0326
rwrist 3.70588
rhand -16.1774 2.07163
rfingers 7.12502
rthumb 10.0291 -27.6694
lclavicle 2.70347e-014 -2.06736e-014
lhumerus -26.5501 -9.58264 83.8812
lradius 4.98528
lwrist 3.11799
lhand -9.98048 -4.81276
lfingers 7.12502
lthumb 16.0024 24.5463
rfemur -1.09202 -2.93623 25.7203
rtibia 31.9152
rfoot -14.1237 -11.5155
rtoes -20.0077
lfemur -6.3877 3.205 -12.9532
ltibia 27.6517
lfoot -7.70513 -11.1427
ltoes -11.2227
172
root -22.0246 17.6367 0.99519 151.95 -69.6299 -156.253
lowerback 7.96718 4.34766 4.33234
upperback 4.11588 5.8702 -2.84071
thorax 0.573859 2.98037 -5.77184
lowerneck -9.92734 -6.93472 1.19078
upperneck -13.4588 -9.27133 14.2101
head -1.9884 -5.33594 4.37492
rclavicle 4.45278e-014 4.77083e-014
rhumerus 54.8032 0.507373 -32.6138
rradius 78.8171
rwrist 3.69406
rhand -15.696 2.33293
rfingers 7.12502
rthumb 10.4934 -27.3852
lclavicle 4.45278e-014 4.77083e-014
lhumerus -26.4389 -9.28628 83.7834
lradius 4.52633
lwrist 2.36392
lhand -9.80091 -4.7269
lfingers 7.12502
lthumb 16.1754 24.6182
rfemur -1.28256 -2.65127 25.6739
rtibia 32.081
rfoot -14.2034 -11.2396
rtoes -19.8671
lfemur -6.39922 3.34732 -12.9638
ltibia 27.6665
lfoot -7.79172 -11.0476
ltoes -11.2556
173
root -22.0163 17.6355 1.00209 152.444 -69.3726 -156.754
lowerback 7.99002 4.28447 4.24873
upperback 4.10456 5.78015 -2.85271
thorax 0.529839 2.93183 -5.73591
lowerneck -9.74189 -6.72514 1.19279
upperneck -13.4448 -8.97994 14.1734
head -2.03838 -5.19548 4.38188
rclavicle -3.73715e-014 -2.22639e-014
rhumerus 53.9017 1.51828 -32.2949
rradius 81.6108
rwrist 3.76174
rhand -15.2352 2.40748
rfingers 7.12502
rthumb 10.9379 -27.2876
lclavicle -3.73715e-014 -2.22639e-014
lhumerus -26.3435 -9.00994 83.6856
lradius 4.19262
lwrist 1.6647
lhand -9.58094 -4.57851
lfingers 7.12502
lthumb 16.3872 24.7492
rfemur -1.43877 -2.37526 25.6028
rtibia 32.24
rfoot -14.2698 -10.9783
rtoes -19.8342
lfemur -6.38689 3.53106 -12.9931
ltibia 27.6748
lfoot -7.84823 -11.0357
ltoes -11.0281
174
root -22.0089 17.6347 1.00698 152.863 -69.1814 -157.166
lowerback 7.96808 4.2013 4.13636
upperback 4.09923 5.6609 -2.85237
thorax 0.508724 2.86896 -5.66515
lowerneck -9.5553 -6.51343 1.16403
upperneck -13.4321 -8.68224 14.1443
head -2.08772 -5.05051 4.39673
rclavicle 2.80286e-014 3.18055e-015
rhumerus 53.0087 2.65515 -31.9046
rradius 84.3434
rwrist 3.91981
rhand -14.9584 2.37817
rfingers 7.12502
rthumb 11.2048 -27.3026
lclavicle 2.80286e-014 3.18055e-015
lhumerus -26.2373 -8.72406 83.6089
lradius 3.98834
lwrist 1.07545
lhand -9.35255 -4.33197
lfingers 7.12502
lthumb 16.6071 24.9775
rfemur -1.58962 -2.09658 25.5424
rtibia 32.3927
rfoot -14.3258 -10.7509
rtoes -19.7381
lfemur -6.38967 3.66981 -13.0228
ltibia 27.6706
lfoot -7.93351 -11.0677
ltoes -11.0776
175
root -22.0018 17.6342 1.00955 153.158 -69.0244 -157.466
lowerback 7.93788 4.10783 4.02647
upperback 4.10707 5.52789 -2.83754
thorax 0.50334 2.79972 -5.57846
lowerneck -9.35066 -6.3019 1.11091
upperneck -13.4452 -8.37967 14.1132
head -2.14857 -4.90382 4.41711
rclavicle -3.02153e-014 2.38542e-014
rhumerus 52.0925 3.90998 -31.5491
rradius 87.0516
rwrist 4.22014
rhand -14.6572 2.30785
rfingers 7.12502
rthumb 11.4954 -27.357
lclavicle -3.02153e-014 2.38542e-014
lhumerus -26.0388 -8.46681 83.491
lradius 3.7714
lwrist 0.590964
lhand -9.07408 -4.17091
lfingers 7.12502
lthumb 16.8751 25.1159
rfemur -1.7174 -1.83699 25.5075
rtibia 32.5348
rfoot -14.3833 -10.51
rtoes -19.3986
lfemur -6.37887 3.72778 -13.0248
ltibia 27.6599
lfoot -8.00495 -11.069
ltoes -11.0062
